Coordinates
version=1
nRows=9
nColumns=24
inDegrees=yes

Units are S.I. units (second, meters, Newtons, ...)
Angles are in degrees.

endheader
time	pelvis_tilt	pelvis_list	pelvis_rotation	pelvis_tx	pelvis_ty	pelvis_tz	hip_flexion_r	hip_adduction_r	hip_rotation_r	knee_angle_r	ankle_angle_r	subtalar_angle_r	mtp_angle_r	hip_flexion_l	hip_adduction_l	hip_rotation_l	knee_angle_l	ankle_angle_l	subtalar_angle_l	mtp_angle_l	lumbar_extension	lumbar_bending	lumbar_rotation
      3.85500000	    -18.86056978	     -6.57247814	      1.32365568	     -1.69609334	     -0.01991388	     -0.36281433	     24.51303678	     10.75787505	     -4.19986181	    -20.57736744	      8.22264503	    -14.33429632	     -2.09043245	     34.74883816	     -8.57024200	     -3.38939169	    -62.16218421	     -7.24176277	     -9.73018491	     20.35501379	     23.57386852	      2.85456284	    -15.43304979
      3.86000000	    -18.87406329	     -6.24080213	      1.12350687	     -1.69020016	     -0.01900408	     -0.36254371	     23.74557761	     10.55375230	     -3.78373428	    -19.99832357	      8.29545658	    -14.13777223	     -2.28985685	     35.40196568	     -8.30250531	     -3.72963261	    -61.64540715	     -6.67479640	     -9.94915247	     20.15902850	     23.50033253	      2.64557324	    -14.96940247
      3.86500000	    -18.89548921	     -5.90338907	      0.93269495	     -1.68434592	     -0.01815975	     -0.36229925	     23.00655868	     10.32638055	     -3.40480771	    -19.44338845	      8.36806056	    -13.93527012	     -2.49760440	     36.04700721	     -8.03032578	     -4.06718322	    -61.06059583	     -6.12390394	    -10.13539527	     19.92304576	     23.43070701	      2.42770062	    -14.52835146
      3.87000000	    -18.93596070	     -5.56469122	      0.75418014	     -1.67853112	     -0.01739946	     -0.36207581	     22.30814350	     10.07937405	     -3.09070248	    -18.90834176	      8.42902254	    -13.74161159	     -2.65564626	     36.70023409	     -7.75539208	     -4.38984452	    -60.40986686	     -5.60665479	    -10.28939571	     19.72212552	     23.37708905	      2.19774926	    -14.10547697
      3.87500000	    -18.93947705	     -5.25656415	      0.53991273	     -1.67274061	     -0.01667979	     -0.36185735	     21.56822833	      9.86839880	     -2.71674047	    -18.36787607	      8.50692677	    -13.49083013	     -2.85888004	     37.29971368	     -7.55226373	     -4.76156960	    -59.71581876	     -5.13518169	    -10.45350399	     19.43691950	     23.27843955	      2.02674019	    -13.65318309
      3.88000000	    -18.95874906	     -4.94553046	      0.33740481	     -1.66697853	     -0.01603911	     -0.36166202	     20.86550789	      9.63825719	     -2.39516754	    -17.85129376	      8.58088554	    -13.24777976	     -3.04512616	     37.89756713	     -7.34627911	     -5.12427505	    -58.95348595	     -4.67589971	    -10.55707685	     19.16909747	     23.19495925	      1.84257773	    -13.22898714
      3.88500000	    -18.99705665	     -4.63588028	      0.14561972	     -1.66124206	     -0.01547407	     -0.36148584	     20.20454907	      9.39467582	     -2.13726641	    -17.35781860	      8.63600973	    -13.02312813	     -3.17425899	     38.49546005	     -7.14294097	     -5.47733676	    -58.11815316	     -4.24053765	    -10.60972511	     18.97053918	     23.13031737	      1.65227799	    -12.82147531
      3.89000000	    -18.98374819	     -4.35972021	     -0.07820940	     -1.65554066	     -0.01494438	     -0.36133269	     19.48828858	      9.18744061	     -1.81590411	    -16.86249303	      8.71401438	    -12.74379343	     -3.33618192	     39.02455075	     -7.00757547	     -5.87209516	    -57.24528029	     -3.83151213	    -10.65920506	     18.69286672	     23.00261150	      1.51731829	    -12.39187146
      3.89500000	    -19.02462679	     -4.07434268	     -0.27744759	     -1.64986044	     -0.01451707	     -0.36118726	     18.86154763	      8.95309313	     -1.60541673	    -16.40406559	      8.76288198	    -12.50378530	     -3.41888746	     39.58758694	     -6.85404434	     -6.24063860	    -56.29022961	     -3.43022642	    -10.60144699	     18.53365660	     22.93590306	      1.35293696	    -11.99316344
